<svg xmlns="http://www.w3.org/2000/svg" version="1.1" xmlns:xlink="http://www.w3.org/1999/xlink" width="512" height="512" x="0" y="0" viewBox="0 0 160 160" style="enable-background:new 0 0 512 512" xml:space="preserve" class=""><g><path d="M136.569 23.432c-31.192-31.193-81.945-31.193-113.137 0-31.192 31.191-31.192 81.944 0 113.137C39.028 152.165 59.514 159.963 80 159.963s40.973-7.798 56.569-23.395c31.191-31.192 31.191-81.945 0-113.136zm-7.071 106.066c-27.293 27.293-71.702 27.293-98.995 0-27.293-27.294-27.293-71.703 0-98.996s71.702-27.293 98.995 0c27.292 27.293 27.292 71.702 0 98.996z" fill="#000000" opacity="1" data-original="#000000" class=""></path><path d="M111.047 48.953a5 5 0 0 0-7.071 0L80 72.93 56.024 48.953a4.998 4.998 0 0 0-7.071 0 4.998 4.998 0 0 0 0 7.07L72.929 80l-23.977 23.977a4.998 4.998 0 0 0 3.536 8.535c1.28 0 2.559-.488 3.536-1.465L80 87.071l23.976 23.976a4.983 4.983 0 0 0 3.535 1.465 4.998 4.998 0 0 0 3.536-8.535L87.071 80l23.977-23.977a4.999 4.999 0 0 0-.001-7.07z" fill="#000000" opacity="1" data-original="#000000" class=""></path></g></svg>